<svg id="Layer_1" data-name="Layer 1" xmlns="http://www.w3.org/2000/svg" viewBox="0 0 400 400"><defs><style>.cls-1{fill:#1fb6ff;}</style></defs><title>Full Logo</title><path class="cls-1" d="M300.76,221.75c-105.21-8.37-192,17.55-211.79,27-10.83,5.17-11.71,11.4-10.25,14.88,1.25,3,6.37,4.46,12.17,1.33,41.88-22.59,126.37-40.88,209.72-35.76C304.68,229.45,306.58,222.22,300.76,221.75Z"/><path class="cls-1" d="M327.05,189.88c-4.6,5.23-10.93,9-13.09,7.07s.05-7.69.05-7.69c10.33-6.46,30.49-23.88,30.49-37.25,0-12.37-10.62-16.11-22.46-4.79-8.08,7.73-15.48,21.92-19.7,36.28-6,6-15.29,13.6-23.83,13.6-4.38,0-5.7-3.13-5.28-7.31,7.39-.41,27.23-6.1,27.23-22.87-.3-7.34-6-10.07-11-10.07-9,0-20.66,9.38-26.36,22.58a11.2,11.2,0,0,1-4.43-1.73,41.13,41.13,0,0,0,3.34-10.1c.92-6.72-1.74-11.37-7.26-11.12-3.54.16-7.86,3.32-8.92,11.05-.72,5.27,2,10.8,2,10.8-2.57,8-12.38,17.75-15.85,17.65-3.18-.1.66-14.31,4-24.68,2.08-2.21,3.83-4.67,4.38-6.83.88-3.46-.45-5-1.52-5.78-2.5-1.82-9.39-1.22-13.22,5.6a69.42,69.42,0,0,0-3.69,8c-2.85,3.38-7,8-8.38,7.21-2.09-1.23,4.14-9.81,3.47-14.72a6.83,6.83,0,0,0-8-6.18c-5.37.74-12.68,12-12.68,12a17.28,17.28,0,0,0,1.36-6.34c-.15-4.08-8.1-6.08-11.73,1.63-1.33,2.82-3.61,12.54-5.66,22.17-1.83,3.35-7.73,13.47-12.58,14-4,.43.85-18,1.42-18.9,2.11-3.43,5-10.65,4.68-13.95-.46-4.29-3.25-5.22-6.07-4.71-4,.71-6.06,4.91-6.06,4.91a8.3,8.3,0,0,0-7.53-2.89c-16.6,1.79-27.4,30.79-26,45.07.71,7.39,4.57,12,10.57,11.27C146.14,222,151.93,211,151.93,211s1.71,8.72,9.46,7.54c5.28-.81,10.53-5.32,14.87-10.3-.17.94-.29,1.61-.34,1.89-1.1,7.2,11,6.69,11.78.7,3.81-27.69,13.14-39.35,15.85-39.35,2.24,0-6,13.16-1.17,18.5,3.91,4.29,10.13.72,15.22-3.74a58.89,58.89,0,0,0-1.39,10.94c-.18,8,2.71,14.25,10.33,13.88,10.18-.49,20.75-12.88,27.7-24.81a15.45,15.45,0,0,0,6,2.51,38.47,38.47,0,0,0-.55,8.89c.52,9.23,6.87,12.59,14,12.43,8.57-.19,18.37-6.76,25.56-12.73,0,.35-.1.69-.14,1-.52,4.21.12,12.53,6.32,13.1,7.39.67,19.89-6.76,26.06-14.76C336.12,190.79,330.72,185.72,327.05,189.88Zm6.56-38.17c.67,0,1,.51,1,1.55,0,7.9-19.44,24.66-19.44,24.66S327.95,151.71,333.61,151.71Zm-177.15,29c-.61,4.8-8.75,25.8-13.17,25.92-5.67.16,2.81-30.07,11.91-29.86C156.81,176.82,156.79,178.2,156.47,180.72Zm130.3-12.16a2.27,2.27,0,0,1,2.48,2.51c0,4.19-5.86,7.55-12.44,8C279.78,173.41,283.93,168.55,286.77,168.55Z"/><path class="cls-1" d="M85.38,186.47c5.47.06-4.16,28.27-3.12,40.54s14.81,8.81,13.94,1.69c-1.49-12.11,6.63-50.06,14.85-50.06,5.77,0-6.39,26.16-4,42.92,1.58,11.08,16,7.24,14.5.67-4.83-21.75,10.14-42.65,8.46-57.46-.73-6.48-4.65-9.65-8.57-9.68C107.72,155,97.11,183,97.11,183s1.1-15.91-9.56-16.49c-16.33-.89-32.5,39.75-32,76,.15,11.58,14.64,9.61,13.87.38C68,225.71,77.59,186.38,85.38,186.47Z"/></svg>